<?xml version="1.0" encoding="UTF-8"?>
<svg width="100px" height="112px" viewBox="0 0 100 112" version="1.1" xmlns="http://www.w3.org/2000/svg" xmlns:xlink="http://www.w3.org/1999/xlink">
    <!-- Generator: sketchtool 45.2 (43514) - http://www.bohemiancoding.com/sketch -->
    <title>5F4BFA12-5A85-44B9-BE70-449BAA6E6B9F</title>
    <desc>Created with sketchtool.</desc>
    <defs>
        <linearGradient x1="4.049635%" y1="73.3795871%" x2="81.1606954%" y2="22.2546606%" id="linearGradient-1">
            <stop stop-color="#3AAA35" offset="0%"></stop>
            <stop stop-color="#009AA6" offset="64.89%"></stop>
            <stop stop-color="#0090CF" offset="100%"></stop>
        </linearGradient>
    </defs>
    <g id="sanaluzman" stroke="none" stroke-width="1" fill="none" fill-rule="evenodd">
        <g id="SINCAPP-NEDIR-WIDE" transform="translate(-893.000000, -2109.000000)" fill-rule="nonzero">
            <g id="logo" transform="translate(893.000000, 2109.000000)">
                <g id="sincapp_logo">
                    <g id="Group" transform="translate(0.000000, 90.046296)">
                        <path d="M0.162037037,11.9444444 L3.54166667,11.9444444 C3.68055556,12.9166667 4.05092593,13.587963 4.65277778,13.9814815 C5.30092593,14.4444444 6.18055556,14.6527778 7.31481481,14.6527778 C8.31018519,14.6527778 9.07407407,14.4675926 9.58333333,14.1203704 C10.0925926,13.7731481 10.3472222,13.2407407 10.3472222,12.5694444 C10.3472222,11.5277778 8.88888889,10.6944444 5.99537037,10.0462963 L5.90277778,10 L5.50925926,9.90740741 C3.86574074,9.56018519 2.75462963,9.18981481 2.22222222,8.7962963 C1.57407407,8.44907407 1.13425926,7.91666667 0.856481481,7.24537037 C0.532407407,6.66666667 0.37037037,5.92592593 0.37037037,5.02314815 C0.37037037,3.44907407 0.925925926,2.19907407 2.01388889,1.2962963 C3.10185185,0.416666667 4.69907407,0 6.80555556,0 C8.77314815,0 10.3009259,0.462962963 11.3657407,1.36574074 C12.4537037,2.36111111 13.0324074,3.68055556 13.1018519,5.27777778 L11.1574074,5.27777778 C10.4166667,5.27777778 9.88425926,4.9537037 9.56018519,4.28240741 C9.39814815,3.95833333 9.16666667,3.7037037 8.88888889,3.47222222 C8.31018519,3.05555556 7.52314815,2.84722222 6.50462963,2.84722222 C5.53240741,2.84722222 4.83796296,3.03240741 4.4212963,3.37962963 C3.93518519,3.72685185 3.7037037,4.23611111 3.7037037,4.88425926 C3.7037037,5.76388889 4.62962963,6.38888889 6.50462963,6.80555556 C7.06018519,6.96759259 7.4537037,7.06018519 7.70833333,7.08333333 C8.28703704,7.26851852 8.7962963,7.43055556 9.23611111,7.5462963 C9.67592593,7.66203704 10.0231481,7.75462963 10.2777778,7.80092593 L11.6435185,8.37962963 C12.2916667,8.77314815 12.7777778,9.25925926 13.1481481,9.88425926 C13.4953704,10.5555556 13.6805556,11.2962963 13.6805556,12.1064815 C13.6805556,13.8425926 13.1018519,15.1851852 11.9444444,16.1574074 C10.787037,17.0601852 9.14351852,17.5 7.01388889,17.5 C4.81481481,17.5 3.1712963,17.037037 2.08333333,16.087963 C0.925925926,15.162037 0.277777778,13.7731481 0.162037037,11.9444444 Z" id="Shape" fill="#0C7891"></path>
                        <path d="M16.0648148,0.462962963 L17.8009259,0.462962963 C18.2638889,0.462962963 18.6342593,0.625 18.9583333,0.949074074 C19.2824074,1.27314815 19.4444444,1.66666667 19.4444444,2.10648148 L19.4444444,3.125 L16.0648148,3.125 L16.0648148,0.462962963 Z M16.0648148,4.23611111 L17.8009259,4.23611111 C18.2638889,4.23611111 18.6342593,4.39814815 18.9583333,4.72222222 C19.2824074,5.0462963 19.4444444,5.43981481 19.4444444,5.87962963 L19.4444444,17.1064815 L16.0648148,17.1064815 L16.0648148,4.23611111 Z" id="Shape" fill="#0C7891"></path>
                        <path d="M32.4768519,17.1064815 L30.787037,17.1064815 C30.3009259,17.1064815 29.9074074,16.9444444 29.6064815,16.6435185 C29.3055556,16.3425926 29.1435185,15.9490741 29.1435185,15.462963 L29.1435185,8.86574074 C29.1435185,8.10185185 28.912037,7.52314815 28.4490741,7.17592593 C27.9861111,6.8287037 27.4768519,6.64351852 26.8981481,6.64351852 C26.3194444,6.64351852 25.8101852,6.8287037 25.3703704,7.17592593 C24.9305556,7.52314815 24.6990741,8.10185185 24.6990741,8.86574074 L24.6990741,17.1064815 L21.25,17.1064815 L21.25,9.58333333 C21.25,7.40740741 21.8287037,5.92592593 22.962963,5.18518519 C24.0972222,4.44444444 25.3703704,4.05092593 26.7592593,3.98148148 C28.1712963,3.98148148 29.4907407,4.35185185 30.6712963,5.09259259 C31.875,5.83333333 32.4537037,7.33796296 32.4537037,9.58333333 L32.4537037,17.1064815 L32.4768519,17.1064815 Z" id="Shape" fill="#0C7891"></path>
                        <path d="M43.6111111,13.1481481 L46.0416667,13.1481481 C45.6944444,14.5138889 45,15.5324074 44.0046296,16.25 C43.0092593,16.9907407 41.7361111,17.3611111 40.2314815,17.3611111 C38.4027778,17.3611111 36.9444444,16.7592593 35.9259259,15.5555556 C34.8842593,14.3981481 34.375,12.7314815 34.375,10.5555556 C34.375,8.47222222 34.8842593,6.85185185 35.8796296,5.69444444 C36.9212963,4.49074074 38.3564815,3.88888889 40.1851852,3.88888889 C42.1296296,3.88888889 43.6342593,4.46759259 44.6990741,5.625 C45.2777778,6.34259259 45.6944444,7.15277778 45.9490741,8.10185185 L42.5694444,8.10185185 C42.4074074,7.80092593 42.2453704,7.5462963 42.0833333,7.40740741 C41.6666667,6.96759259 41.0648148,6.75925926 40.3009259,6.75925926 C39.5833333,6.75925926 39.0046296,6.99074074 38.5648148,7.43055556 C37.9861111,8.0787037 37.6851852,9.12037037 37.6851852,10.6018519 C37.6851852,12.0833333 37.9861111,13.125 38.5648148,13.7268519 C38.9814815,14.2361111 39.6064815,14.4907407 40.462963,14.4907407 C41.0185185,14.4907407 41.4814815,14.375 41.875,14.1666667 C41.9675926,14.1435185 42.0601852,14.0972222 42.1064815,14.0277778 L42.4074074,13.75 C42.4768519,13.6574074 42.5925926,13.5416667 42.8009259,13.3796296 C42.9398148,13.2175926 43.2175926,13.1481481 43.6111111,13.1481481 Z" id="Shape" fill="#0C7891"></path>
                        <path d="M55.3703704,0.462962963 L58.0787037,0.462962963 L64.1203704,17.1296296 L60.4861111,17.1296296 L59.375,13.6805556 L52.8935185,13.6805556 L51.8287037,17.1296296 L48.1944444,17.1296296 L53.7037037,1.57407407 C54.0046296,0.833333333 54.5601852,0.462962963 55.3703704,0.462962963 Z M56.1342593,3.7962963 L53.8194444,10.8564815 L58.4722222,10.8564815 L56.1342593,3.7962963 Z" id="Shape" fill="#1B1F23"></path>
                        <path d="M69.837963,20.2083333 C69.837963,20.6712963 69.6759259,21.0416667 69.3518519,21.3657407 C69.0277778,21.6898148 68.6342593,21.8518519 68.1944444,21.8518519 L66.5509259,21.8518519 L66.5509259,9.79166667 C66.5509259,7.52314815 67.2222222,5.99537037 68.5416667,5.16203704 C69.8611111,4.3287037 71.2962963,3.93518519 72.8472222,3.93518519 C73.6574074,3.93518519 74.4675926,4.09722222 75.3009259,4.39814815 C76.1342593,4.69907407 76.7824074,5.13888889 77.2685185,5.74074074 C78.2407407,6.99074074 78.7268519,8.61111111 78.7268519,10.5787037 C78.7268519,12.6157407 78.2407407,14.2592593 77.2685185,15.5092593 C76.2962963,16.7361111 75.0462963,17.3611111 73.5416667,17.3611111 C72.7314815,17.3611111 72.0138889,17.2222222 71.412037,16.9212963 C70.7638889,16.5972222 70.2546296,16.087963 69.8611111,15.4166667 L69.8611111,20.2083333 L69.837963,20.2083333 Z M75.3703704,10.7175926 C75.3703704,9.46759259 75.1388889,8.49537037 74.6527778,7.80092593 C74.1666667,7.12962963 73.4722222,6.78240741 72.5694444,6.78240741 C71.6898148,6.78240741 71.0185185,7.12962963 70.5324074,7.80092593 C70.0694444,8.42592593 69.8611111,9.375 69.8611111,10.7175926 C69.8611111,11.9444444 70.0925926,12.8703704 70.5787037,13.4722222 C71.0648148,14.1435185 71.7592593,14.4907407 72.662037,14.4907407 C73.4953704,14.4907407 74.1666667,14.1435185 74.6527778,13.4722222 C75.1157407,12.8009259 75.3703704,11.875 75.3703704,10.7175926 Z" id="Shape" fill="#1B1F23"></path>
                        <path d="M83.9351852,20.2083333 C83.9351852,20.6712963 83.7731481,21.0416667 83.4490741,21.3657407 C83.125,21.6898148 82.7314815,21.8518519 82.2916667,21.8518519 L80.6481481,21.8518519 L80.6481481,9.79166667 C80.6481481,7.52314815 81.3194444,5.99537037 82.6388889,5.16203704 C83.9583333,4.3287037 85.3935185,3.93518519 86.9444444,3.93518519 C87.7546296,3.93518519 88.5648148,4.09722222 89.3981481,4.39814815 C90.2314815,4.69907407 90.8796296,5.13888889 91.3657407,5.74074074 C92.337963,6.99074074 92.8240741,8.61111111 92.8240741,10.5787037 C92.8240741,12.6157407 92.337963,14.2592593 91.3657407,15.5092593 C90.3935185,16.7361111 89.1435185,17.3611111 87.6388889,17.3611111 C86.8287037,17.3611111 86.1111111,17.2222222 85.5092593,16.9212963 C84.8611111,16.5972222 84.3518519,16.087963 83.9583333,15.4166667 L83.9583333,20.2083333 L83.9351852,20.2083333 Z M89.4675926,10.7175926 C89.4675926,9.46759259 89.2361111,8.49537037 88.75,7.80092593 C88.2638889,7.12962963 87.5694444,6.78240741 86.6666667,6.78240741 C85.787037,6.78240741 85.1157407,7.12962963 84.6296296,7.80092593 C84.1666667,8.42592593 83.9583333,9.375 83.9583333,10.7175926 C83.9583333,11.9444444 84.1898148,12.8703704 84.6759259,13.4722222 C85.162037,14.1435185 85.8564815,14.4907407 86.7592593,14.4907407 C87.5925926,14.4907407 88.2638889,14.1435185 88.75,13.4722222 C89.212963,12.8009259 89.4675926,11.875 89.4675926,10.7175926 Z" id="Shape" fill="#1B1F23"></path>
                    </g>
                    <path d="M99.7222222,50.1388889 C99.7222222,50.1388889 97.6851852,47.1064815 97.4537037,46.7592593 C97.3842593,46.6435185 97.2916667,46.5740741 97.2222222,46.5046296 C94.6064815,46.0416667 90.625,47.2222222 86.7824074,49.7916667 C82.4537037,52.7083333 79.6990741,56.5046296 79.6990741,59.212963 L77.962963,60.3009259 C76.5046296,58.4027778 73.8888889,57.6157407 70.2777778,57.8240741 C64.3981481,58.1481481 67.0833333,48.8657407 67.0833333,48.8657407 C81.3194444,50.4166667 85.5555556,46.9907407 84.375,42.1296296 C83.1712963,37.2685185 73.8425926,28.5648148 72.1990741,27.4537037 C70.5787037,26.3425926 67.6388889,22.0601852 67.4074074,20.5092593 C67.1990741,18.9583333 66.4351852,19.3055556 66.4351852,19.3055556 C62.0833333,21.9444444 63.8194444,31.2268519 63.8194444,31.2268519 C63.7037037,32.337963 61.3194444,29.9074074 61.3194444,29.9074074 C60.3472222,31.2268519 54.0277778,34.9768519 54.0277778,34.9768519 C45.1157407,34.6527778 38.0555556,37.8472222 38.0555556,37.8472222 C23.1712963,44.0972222 21.5277778,62.2916667 21.5277778,62.2916667 C20.1157407,58.4259259 22.2916667,41.3425926 35,35.4861111 C47.7083333,29.6527778 44.4675926,15.0925926 44.4675926,15.0925926 C44.4675926,15.0925926 41.7592593,-0.231481481 24.0277778,0.208333333 C6.31944444,0.648148148 3.47222222,15.9722222 3.47222222,15.9722222 C15.2083333,5.16203704 22.1759259,12.0138889 22.1759259,12.0138889 C16.7361111,9.90740741 11.8518519,13.3333333 11.8518519,13.3333333 C11.8518519,13.3333333 22.3842593,12.7083333 23.1481481,20.7638889 C23.912037,28.8194444 16.3657407,34.1898148 15.3240741,35.3935185 C14.3287037,36.5509259 3.49537037,47.5231481 9.46759259,64.3981481 C15.4398148,81.2731481 32.6157407,84.1435185 32.6157407,84.1435185 L64.7916667,84.1435185 C64.2592593,82.9398148 61.8518519,81.1574074 56.6435185,81.0648148 C51.4351852,80.9490741 53.8194444,75.8796296 53.8194444,75.8796296 C55.8796296,74.2361111 56.8518519,70.6944444 56.8518519,70.6944444 C59.6759259,60.5555556 48.2638889,51.7361111 48.2638889,51.7361111 C53.587963,52.8472222 58.2175926,60.1851852 58.2175926,60.1851852 C61.9907407,65.4861111 64.5833333,66.0648148 68.7962963,64.1666667 C69.9305556,63.6574074 71.2962963,63.587963 72.2916667,63.7962963 L69.7222222,65.462963 C68.9583333,65.9722222 69.375,67.1527778 69.8842593,67.9166667 C70.3935185,68.6805556 71.9444444,69.4675926 72.7083333,68.9583333 L77.2916667,65.2777778 C78.0092593,65.5324074 78.7268519,65.2083333 78.7268519,65.2083333 C78.75,64.7453704 79.2361111,64.2824074 79.1898148,63.8657407 L81.5509259,62.0138889 C84.0509259,63.0092593 88.6111111,61.8981481 92.9398148,58.9814815 C96.5972222,56.5277778 99.1203704,53.4259259 99.837963,50.9027778 C99.9537037,50.2546296 99.7222222,50.1388889 99.7222222,50.1388889 Z M72.1759259,35.1851852 C72.8472222,34.375 74.5138889,34.6527778 75.9027778,35.8101852 C77.2916667,36.9675926 77.8703704,38.587963 77.2222222,39.3981481 C76.5509259,40.2083333 74.8842593,39.9305556 73.4953704,38.7731481 C72.1064815,37.5925926 71.5046296,35.9953704 72.1759259,35.1851852 Z M82.962963,58.3564815 C87.8935185,50.0694444 95.8564815,49.6527778 95.8564815,49.6527778 C91.5046296,57.5694444 82.962963,58.3564815 82.962963,58.3564815 Z" id="Shape" fill="url(#linearGradient-1)"></path>
                </g>
            </g>
        </g>
    </g>
</svg>